<?xml version="1.0" encoding="UTF-8"?>
<svg xmlns="http://www.w3.org/2000/svg" xmlns:xlink="http://www.w3.org/1999/xlink" stroke-dasharray="none" shape-rendering="auto" font-family="'Dialog'" width="285" text-rendering="auto" fill-opacity="1" contentScriptType="text/ecmascript" color-interpolation="auto" color-rendering="auto" preserveAspectRatio="xMidYMid meet" font-size="12" viewBox="0 0 285 250" fill="black" stroke="black" image-rendering="auto" stroke-miterlimit="10" zoomAndPan="magnify" version="1.0" stroke-linecap="square" stroke-linejoin="miter" contentStyleType="text/css" font-style="normal" height="250" stroke-width="1" stroke-dashoffset="0" font-weight="normal" stroke-opacity="1">
  <!--Generated by the Batik Graphics2D SVG Generator-->
  <defs id="genericDefs" />
  <g>
    <defs id="defs1">
      <clipPath clipPathUnits="userSpaceOnUse" id="clipPath1">
        <path d="M24 9 L96 9 L96 41 L24 41 L24 9 Z" />
      </clipPath>
      <clipPath clipPathUnits="userSpaceOnUse" id="clipPath2">
        <path d="M24 9 L100 9 L100 41 L24 41 L24 9 Z" />
      </clipPath>
      <clipPath clipPathUnits="userSpaceOnUse" id="clipPath3">
        <path d="M54 39 L66 39 L66 241 L54 241 L54 39 Z" />
      </clipPath>
      <clipPath clipPathUnits="userSpaceOnUse" id="clipPath4">
        <path d="M124 9 L276 9 L276 61 L124 61 L124 9 Z" />
      </clipPath>
      <clipPath clipPathUnits="userSpaceOnUse" id="clipPath5">
        <path d="M124 9 L280 9 L280 61 L124 61 L124 9 Z" />
      </clipPath>
      <clipPath clipPathUnits="userSpaceOnUse" id="clipPath6">
        <path d="M194 59 L206 59 L206 241 L194 241 L194 59 Z" />
      </clipPath>
      <clipPath clipPathUnits="userSpaceOnUse" id="clipPath7">
        <path d="M189 89 L211 89 L211 131 L189 131 L189 89 Z" />
      </clipPath>
      <clipPath clipPathUnits="userSpaceOnUse" id="clipPath8">
        <path d="M210 89 L244 89 L244 116 L210 116 L210 89 Z" />
      </clipPath>
      <clipPath clipPathUnits="userSpaceOnUse" id="clipPath9">
        <path d="M189 149 L211 149 L211 191 L189 191 L189 149 Z" />
      </clipPath>
      <clipPath clipPathUnits="userSpaceOnUse" id="clipPath10">
        <path d="M210 149 L252 149 L252 176 L210 176 L210 149 Z" />
      </clipPath>
      <clipPath clipPathUnits="userSpaceOnUse" id="clipPath11">
        <path d="M-1 -1 L286 -1 L286 251 L-1 251 L-1 -1 Z" />
      </clipPath>
      <clipPath clipPathUnits="userSpaceOnUse" id="clipPath12">
        <path d="M60 67 L194 67 L194 94 L60 94 L60 67 Z" />
      </clipPath>
      <clipPath clipPathUnits="userSpaceOnUse" id="clipPath13">
        <path d="M58 85 L70 85 L70 96 L58 96 L58 85 Z" />
      </clipPath>
      <clipPath clipPathUnits="userSpaceOnUse" id="clipPath14">
        <path d="M23 127 L231 127 L231 154 L23 154 L23 127 Z" />
      </clipPath>
      <clipPath clipPathUnits="userSpaceOnUse" id="clipPath15">
        <path d="M181 145 L193 145 L193 156 L181 156 L181 145 Z" />
      </clipPath>
    </defs>
    <g fill="rgb(238,201,142)" font-family="'Segoe UI'" stroke-linejoin="round" stroke="rgb(238,201,142)" stroke-width="0" stroke-miterlimit="0">
      <rect x="25" y="10" clip-path="url(#clipPath1)" width="70" height="30" stroke="none" />
    </g>
    <g stroke-width="0.1" font-family="'Segoe UI'" stroke-linecap="butt">
      <rect x="25" y="10" clip-path="url(#clipPath1)" fill="none" width="69" height="29" />
      <text x="31" font-size="19" y="33" clip-path="url(#clipPath2)" stroke="none" xml:space="preserve">System</text>
      <line clip-path="url(#clipPath3)" fill="none" x1="59" x2="59" y1="40" y2="240" stroke-dasharray="10,10" stroke-width="1.1" />
    </g>
    <g stroke-linecap="butt" fill="rgb(255,245,181)" font-family="'Segoe UI'" stroke-dasharray="10,10" stroke="rgb(255,245,181)" stroke-width="1.1">
      <rect x="125" y="10" clip-path="url(#clipPath4)" width="150" height="50" stroke="none" />
    </g>
    <g stroke-width="0.1" font-family="'Segoe UI'" stroke-linecap="butt">
      <rect x="125" y="10" clip-path="url(#clipPath4)" fill="none" width="149" height="49" />
      <text x="170" font-size="19" y="31" clip-path="url(#clipPath5)" stroke="none" xml:space="preserve">oreana</text>
      <text x="167" font-size="19" y="56" clip-path="url(#clipPath5)" stroke="none" xml:space="preserve">: actYou</text>
      <line clip-path="url(#clipPath6)" fill="none" x1="199" x2="199" y1="60" y2="240" stroke-dasharray="10,10" stroke-width="1.1" />
    </g>
    <g stroke-linecap="butt" fill="rgb(39,76,114)" font-family="'Segoe UI'" stroke-dasharray="10,10" stroke="rgb(39,76,114)" stroke-width="1.1">
      <rect x="190" y="90" clip-path="url(#clipPath7)" width="20" height="40" stroke="none" />
      <rect x="190" y="90" clip-path="url(#clipPath7)" fill="none" width="19" stroke-dasharray="none" height="39" stroke-width="0.1" />
    </g>
    <g stroke-width="0.1" font-size="19" font-family="'Segoe UI'" stroke-linecap="butt">
      <text xml:space="preserve" x="211" y="111" clip-path="url(#clipPath8)" stroke="none">out</text>
      <rect x="190" y="150" clip-path="url(#clipPath9)" fill="rgb(194,239,255)" width="20" height="40" stroke="none" />
      <rect x="190" y="150" clip-path="url(#clipPath9)" fill="none" width="19" height="39" stroke="rgb(194,239,255)" />
      <text xml:space="preserve" x="211" y="171" clip-path="url(#clipPath10)" stroke="none">in01</text>
      <line clip-path="url(#clipPath11)" fill="none" x1="190" x2="60" y1="90" y2="90" stroke="rgb(136,136,136)" stroke-width="2.1" />
      <text x="61" y="89" clip-path="url(#clipPath12)" stroke="none" stroke-width="2.1" xml:space="preserve">oeHelloWorld()</text>
      <line clip-path="url(#clipPath13)" fill="none" x1="67" x2="60" y1="87" y2="90" stroke="rgb(136,136,136)" stroke-width="2.1" />
      <line clip-path="url(#clipPath13)" fill="none" x1="60" x2="67" y1="90" y2="93" stroke="rgb(136,136,136)" stroke-width="2.1" />
    </g>
    <g stroke-linecap="butt" font-size="19" fill="rgb(136,136,136)" font-family="'Segoe UI'" stroke-dasharray="5,5" stroke="rgb(136,136,136)" stroke-width="2.1">
      <line clip-path="url(#clipPath11)" fill="none" x1="190" x2="60" y1="150" y2="150" />
      <text x="24" y="149" clip-path="url(#clipPath14)" fill="black" stroke="none" xml:space="preserve">ieHelloWorld(Hello you)</text>
      <line clip-path="url(#clipPath15)" fill="none" x1="183" x2="190" y1="153" y2="150" stroke-dasharray="none" />
      <line clip-path="url(#clipPath15)" fill="none" x1="190" x2="183" y1="150" y2="147" stroke-dasharray="none" />
    </g>
  </g>
</svg>

